# xmcd CD database file
#
# Track frame offsets:
#	150
#	27332
#	44531
#	74263
#	99115
#	134060
#	156922
#	178921
#	190148
#	215920
#	295455
#
# Disc length: 4356 seconds
#
# Revision: 0
# Processed by: cddbd v1.5PL3 Copyright (c) Steve Scherf et al.
# Submitted via: CDex 1.51
#
DISCID=af11020b
DTITLE=TEN PLANTS(VA) - TEN PLANTS
DYEAR=1999
DGENRE=New Age
TTITLE0=東京生活 - 東野美紀(歌:YUMIKO)
TTITLE1=桜の木のある庭で - 多和田吏
TTITLE2=明日の夢も忘れて - 植松伸夫(歌:上野洋子)
TTITLE3=クロレラ製造工場長 - 崎元仁
TTITLE4=Moon on the Waves IV - KENYU
TTITLE5=ふるふる（星が聴いた花のうた） - 笹川敏幸(歌:吉田ゆう子)
TTITLE6=True Plant - 細江慎治
TTITLE7=KARINA〜ヒチメナホチ〜 - THELONIOUS MONKEYS(歌:スリープウォーク)
TTITLE8=秋風索漠 - 古代祐三
TTITLE9=イスムル・ハヤート - 竹間ジュン
TTITLE10=DATA
EXTD=YEAR: 1999
EXTT0=
EXTT1=
EXTT2=
EXTT3=
EXTT4=
EXTT5=
EXTT6=
EXTT7=
EXTT8=
EXTT9=
EXTT10=
PLAYORDER=
